<?xml version="1.0" encoding="utf-8"?>
<!-- Generator: Adobe Illustrator 16.0.0, SVG Export Plug-In . SVG Version: 6.00 Build 0)  -->
<!DOCTYPE svg PUBLIC "-//W3C//DTD SVG 1.1//EN" "http://www.w3.org/Graphics/SVG/1.1/DTD/svg11.dtd">
<svg version="1.1" id="Layer_1" xmlns="http://www.w3.org/2000/svg" xmlns:xlink="http://www.w3.org/1999/xlink" x="0px" y="0px"
	 width="19px" height="15px" viewBox="0 0 19 15" enable-background="new 0 0 19 15" xml:space="preserve">
<g>
	<path fill="#FF0000" d="M9,3.058C7.819,3.194,6.776,3.769,6.053,4.639L4,2.586V0H3v3l2.492,2.493C5.26,5.955,5.128,6.467,5.063,7H0
		v1h5.063C5.128,8.533,5.26,9.045,5.492,9.507L3,12v3h1v-2.585l2.053-2.054c0.723,0.87,1.766,1.444,2.947,1.581V3.058z M13.938,7
		c-0.065-0.533-0.197-1.045-0.431-1.507L16,3V0h-1v2.586l-2.053,2.053C12.224,3.769,11.182,3.194,10,3.058v8.884
		c1.182-0.136,2.224-0.711,2.947-1.581L15,12.415V15h1v-3l-2.493-2.492C13.739,9.045,13.872,8.534,13.938,8H19V7H13.938z"/>
</g>
</svg>
