<?xml version="1.0" encoding="utf-8"?>
<!-- Generator: Adobe Illustrator 16.0.0, SVG Export Plug-In . SVG Version: 6.00 Build 0)  -->
<!DOCTYPE svg PUBLIC "-//W3C//DTD SVG 1.1//EN" "http://www.w3.org/Graphics/SVG/1.1/DTD/svg11.dtd">
<svg version="1.1" id="Layer_1" xmlns="http://www.w3.org/2000/svg" xmlns:xlink="http://www.w3.org/1999/xlink" x="0px" y="0px"
	 width="28px" height="28px" viewBox="0 0 28 28" enable-background="new 0 0 28 28" xml:space="preserve">
<g>
	<g>
		<polygon fill="#FFFFFF" points="16,16 12,16 12,17 17,17 17,12 16,12 		"/>
		<polygon fill="#FFFFFF" points="10,16 10,10 16,10 16,11 17,11 17,9 9,9 9,17 11,17 11,16 		"/>
		<polygon fill="#FFFFFF" points="16,12 16,11 11,11 11,16 12,16 12,12 		"/>
		<polygon fill="#FFFFFF" points="17,11 17,12 18,12 18,18 12,18 12,17 11,17 11,19 19,19 19,11 		"/>
	</g>
	<rect fill="none" width="28" height="28"/>
</g>
</svg>
