<?xml version="1.0" encoding="utf-8"?>
<!-- Generator: Adobe Illustrator 16.0.0, SVG Export Plug-In . SVG Version: 6.00 Build 0)  -->
<!DOCTYPE svg PUBLIC "-//W3C//DTD SVG 1.1//EN" "http://www.w3.org/Graphics/SVG/1.1/DTD/svg11.dtd">
<svg version="1.1" id="Layer_2" xmlns="http://www.w3.org/2000/svg" xmlns:xlink="http://www.w3.org/1999/xlink" x="0px" y="0px"
	 width="26px" height="23px" viewBox="0 0 26 23" enable-background="new 0 0 26 23" xml:space="preserve">
<g>
	<g>
		<polygon fill="#FFFFFF" points="16,12 16,20 20,21 20,20 20,12 20,11 		"/>
		<circle fill="#FFFFFF" cx="7" cy="16" r="2.75"/>
		<path fill="#FFFFFF" d="M12,9C11.322,9,2.676,9,2,9c-1.104,0-2,0.896-2,2c0,0.652,0,9.348,0,10c0,1.105,0.896,2,2,2
			c0.676,0,9.323,0,10,0c1.104,0,2-0.895,2-2c0-0.652,0-9.348,0-10C14,9.896,13.104,9,12,9z M7,20.75c-2.623,0-4.75-2.128-4.75-4.75
			S4.377,11.25,7,11.25c2.621,0,4.75,2.128,4.75,4.75S9.621,20.75,7,20.75z"/>
	</g>
	<rect fill="none" width="26" height="23"/>
</g>
</svg>
