<?xml version="1.0" encoding="utf-8"?>
<!-- Generator: Adobe Illustrator 16.0.0, SVG Export Plug-In . SVG Version: 6.00 Build 0)  -->
<!DOCTYPE svg PUBLIC "-//W3C//DTD SVG 1.1//EN" "http://www.w3.org/Graphics/SVG/1.1/DTD/svg11.dtd">
<svg version="1.1" id="Layer_1" xmlns="http://www.w3.org/2000/svg" xmlns:xlink="http://www.w3.org/1999/xlink" x="0px" y="0px"
	 width="58px" height="48px" viewBox="0 0 58 48" enable-background="new 0 0 58 48" xml:space="preserve">
<g>
	<path fill="#B3B3B3" d="M0,20h20V0H0V20z M1,1h18v18H1V1z"/>
	<rect x="23" y="3" fill="#B3B3B3" width="35" height="1"/>
	<rect x="23" y="7" fill="#B3B3B3" width="35" height="1"/>
	<rect x="23" y="11" fill="#B3B3B3" width="35" height="1"/>
	<rect x="23" y="15" fill="#B3B3B3" width="35" height="1"/>
	<path fill="#B3B3B3" d="M0,48h20V28H0V48z M1,29h18v18H1V29z"/>
	<rect x="23" y="31" fill="#B3B3B3" width="35" height="1"/>
	<rect x="23" y="35" fill="#B3B3B3" width="35" height="1"/>
	<rect x="23" y="39" fill="#B3B3B3" width="35" height="1"/>
	<rect x="23" y="43" fill="#B3B3B3" width="35" height="1"/>
</g>
</svg>
