<?xml version="1.0" encoding="utf-8"?>
<!-- Generator: Adobe Illustrator 16.0.0, SVG Export Plug-In . SVG Version: 6.00 Build 0)  -->
<!DOCTYPE svg PUBLIC "-//W3C//DTD SVG 1.1//EN" "http://www.w3.org/Graphics/SVG/1.1/DTD/svg11.dtd">
<svg version="1.1" id="Layer_1" xmlns="http://www.w3.org/2000/svg" xmlns:xlink="http://www.w3.org/1999/xlink" x="0px" y="0px"
	 width="148px" height="148px" viewBox="0 0 148 148" enable-background="new 0 0 148 148" xml:space="preserve">
<g>
	<g>
		<rect fill="#FFFFFF" width="148" height="148"/>
		<path fill="#CDCDCD" d="M147,1v146H1V1H147 M148,0H0v148h148V0L148,0z"/>
	</g>
	<g>
		<path fill="#B3B3B3" d="M45,70h20V50H45V70z M46,51h18v18H46V51z"/>
		<rect x="68" y="53" fill="#B3B3B3" width="35" height="1"/>
		<rect x="68" y="57" fill="#B3B3B3" width="35" height="1"/>
		<rect x="68" y="61" fill="#B3B3B3" width="35" height="1"/>
		<rect x="68" y="65" fill="#B3B3B3" width="35" height="1"/>
		<path fill="#B3B3B3" d="M45,98h20V78H45V98z M46,79h18v18H46V79z"/>
		<rect x="68" y="81" fill="#B3B3B3" width="35" height="1"/>
		<rect x="68" y="85" fill="#B3B3B3" width="35" height="1"/>
		<rect x="68" y="89" fill="#B3B3B3" width="35" height="1"/>
		<rect x="68" y="93" fill="#B3B3B3" width="35" height="1"/>
	</g>
</g>
</svg>
