<?xml version="1.0" encoding="utf-8"?>
<!-- Generator: Adobe Illustrator 16.0.0, SVG Export Plug-In . SVG Version: 6.00 Build 0)  -->
<!DOCTYPE svg PUBLIC "-//W3C//DTD SVG 1.1//EN" "http://www.w3.org/Graphics/SVG/1.1/DTD/svg11.dtd">
<svg version="1.1" id="Layer_1" xmlns="http://www.w3.org/2000/svg" xmlns:xlink="http://www.w3.org/1999/xlink" x="0px" y="0px"
	 width="28px" height="28px" viewBox="0 0 28 28" enable-background="new 0 0 28 28" xml:space="preserve">
<g>
	<polygon points="19,14 19,13 18,13 18,12 17,12 17,11 16,11 16,10 15,10 15,9 13,9 13,10 12,10 12,11 11,11 11,12 10,12 10,13 
		9,13 9,14 8,14 8,16 10,16 10,15 11,15 11,14 12,14 12,13 13,13 13,12 15,12 15,13 16,13 16,14 17,14 17,15 18,15 18,16 20,16 
		20,14 	"/>
	<rect fill="none" width="28" height="28"/>
</g>
</svg>
