<?xml version="1.0" encoding="utf-8"?>
<!-- Generator: Adobe Illustrator 16.0.0, SVG Export Plug-In . SVG Version: 6.00 Build 0)  -->
<!DOCTYPE svg PUBLIC "-//W3C//DTD SVG 1.1//EN" "http://www.w3.org/Graphics/SVG/1.1/DTD/svg11.dtd">
<svg version="1.1" id="Layer_1" xmlns="http://www.w3.org/2000/svg" xmlns:xlink="http://www.w3.org/1999/xlink" x="0px" y="0px"
	 width="148px" height="148px" viewBox="0 0 148 148" enable-background="new 0 0 148 148" xml:space="preserve">
<g>
	<rect fill="#FFFFFF" width="148" height="148"/>
	<g>
		<path fill="#CDCDCD" d="M0,0v148h148V0H0z M147,147H1V1h146V147z"/>
		<path fill="#CDCDCD" d="M58.079,66.346c1.268-0.752,2.258,0.08,3.604,3.525c0,0,1.109,3.405,1.941,6.692
			c0.832,3.287,1.94,8.119,3.485,10.376c1.545,2.258,3.762,4.04,8.16,1.387c4.396-2.654,10.764-10.002,14.771-17.821
			c4.079-7.96,0.99-12.99-2.019-13.664c-3.211-0.717-9.862-0.277-12.198,8.713c4.355-1.584,5.86,0.277,5.148,3.445
			c-0.714,3.169-4.833,8.989-6.06,8.751c-1.229-0.237-2.1-2.297-3.327-8.474c-1.228-6.179-0.674-10.258-4.476-11.881
			c-2.614-0.872-4.451,0.594-6.812,2.495C57.462,62.175,54,65.554,54,65.554l1.703,2.337C55.703,67.891,56.812,67.099,58.079,66.346
			z"/>
	</g>
</g>
</svg>
