<?xml version="1.0" encoding="utf-8"?>
<!-- Generator: Adobe Illustrator 16.0.0, SVG Export Plug-In . SVG Version: 6.00 Build 0)  -->
<!DOCTYPE svg PUBLIC "-//W3C//DTD SVG 1.1//EN" "http://www.w3.org/Graphics/SVG/1.1/DTD/svg11.dtd">
<svg version="1.1" id="Layer_1" xmlns="http://www.w3.org/2000/svg" xmlns:xlink="http://www.w3.org/1999/xlink" x="0px" y="0px"
	 width="160px" height="43px" viewBox="0 0 160 43" enable-background="new 0 0 160 43" xml:space="preserve">
<g>
	<g>
		<g opacity="0.3">
			<g>
				<path d="M92.824,41.332l0.6-1.463l0.633,1.463H92.824z M92.116,42.845H91.66v0.074h1.019v-0.074h-0.477l0.595-1.437h1.287
					l0.622,1.437h-0.499v0.074h1.801v-0.074h-0.461l-1.688-3.893h-0.145L92.116,42.845z M86.397,39.178
					c0.08-0.006,0.154-0.017,0.235-0.017c0.536,0,0.682,0.274,0.682,0.901c0,0.391-0.055,0.771-0.697,0.771h-0.22V39.178z
					 M85.936,39.103h-0.81v0.075h0.494v3.667h-0.494v0.074h1.764v-0.074h-0.492v-1.936h0.354c0.665,0,0.691,0.563,0.718,1.147
					C87.485,42.432,87.512,43,88.3,43c0.392,0,0.483-0.106,0.627-0.252L88.874,42.7c-0.07,0.069-0.156,0.176-0.3,0.176
					c-0.252,0-0.247-0.149-0.317-1.045c-0.059-0.771-0.477-0.847-1.174-0.97v-0.027c0.483-0.038,1.056-0.257,1.056-0.831
					c0-0.713-0.75-0.917-1.312-0.917c-0.146,0-0.295,0.005-0.445,0.005C86.231,39.098,86.086,39.103,85.936,39.103 M77.734,41.022
					c0,1.104,0.954,1.978,2.005,1.978c0.66,0,0.879-0.327,1.222-0.327c0.086,0,0.161,0.037,0.177,0.123h0.097v-1.228h0.349v-0.075
					h-1.657v0.075h0.553v0.204c0,0.648-0.08,1.153-0.734,1.153c-0.804,0-1.136-0.44-1.136-1.743c0-0.9-0.065-2.092,1.136-2.092
					c0.617-0.005,0.98,0.408,1.163,1.105h0.081v-1.094h-0.091c-0.038,0.086-0.07,0.112-0.167,0.112
					c-0.188,0-0.558-0.198-0.992-0.198C78.822,39.017,77.734,39.811,77.734,41.022 M70.811,41.022c0-1.126,0.134-1.932,1.137-1.932
					c1.077,0,1.131,0.881,1.131,1.883c0,1.114-0.075,1.952-1.131,1.952C71.144,42.926,70.811,42.513,70.811,41.022 M69.937,41.022
					c0,1.104,0.955,1.978,2.011,1.978c1.066,0,2.005-0.922,2.005-1.995c0-1.222-1.014-1.988-2.005-1.988
					C71.026,39.017,69.937,39.811,69.937,41.022 M66.451,39.103H63.09v0.98h0.069c0.209-0.729,0.499-0.905,1.029-0.905h0.194v3.667
					h-0.494v0.074h1.764v-0.074h-0.493v-3.667h0.193c0.531,0,0.82,0.177,1.029,0.905h0.07V39.103z M5.433,15.678H2.944l1.212-2.954
					L5.433,15.678z M5.835,19.538h4.351v-0.396H9.092l-3.87-8.918h-0.48l-3.661,8.918H0v0.396h2.557v-0.396H1.52l1.271-3.068h2.8
					l1.328,3.068H5.835V19.538z M22.89,10.963h1.092v-0.395h-2.57v0.395h1.054L20.039,17.2l-2.382-6.237h1.129v-0.395h-4.339v0.395
					h1.079l3.39,8.919h0.51L22.89,10.963z M30.405,19.538h4.265v-0.396h-1.131v-8.179h1.131v-0.395h-4.265v0.395h1.13v8.179h-1.13
					V19.538z M43.845,40.121c0,0.659-0.251,0.906-0.863,0.906h-0.166v-1.85c0.059-0.006,0.134-0.017,0.209-0.017
					C43.647,39.161,43.845,39.499,43.845,40.121 M43.133,39.086c-0.183,0-0.365,0.005-0.547,0.005
					c-0.183,0.007-0.365,0.012-0.547,0.012h-0.494v0.075h0.494v3.667h-0.494v0.074h1.764v-0.074h-0.493v-1.742h0.22
					c1.147,0,1.683-0.456,1.683-1.014C44.719,39.264,43.776,39.086,43.133,39.086 M43.475,19.538h8.012v-3h-0.361l-0.019,0.088
					c-0.509,2.335-2.105,2.516-2.581,2.516H46.61v-8.179h1.13v-0.395h-4.265v0.395h1.13v8.179h-1.13V19.538z M50.375,42.919h1.763
					v-0.074h-0.493v-3.667h0.493v-0.075h-1.763v0.075h0.493v1.759h-1.55v-1.759h0.494v-0.075h-1.764v0.075h0.493v3.667h-0.493v0.074
					h1.764v-0.074h-0.494v-1.833h1.55v1.833h-0.493V42.919z M57.691,39.091c1.078,0,1.132,0.881,1.132,1.883
					c0,1.114-0.076,1.952-1.132,1.952c-0.804,0-1.136-0.413-1.136-1.903C56.555,39.896,56.689,39.091,57.691,39.091 M57.691,39.017
					c-0.922,0-2.01,0.794-2.01,2.006c0,1.104,0.954,1.978,2.01,1.978c1.067,0,2.005-0.922,2.005-1.995
					C59.696,39.783,58.683,39.017,57.691,39.017 M61.679,15.678H59.19l1.212-2.954L61.679,15.678z M65.338,19.143l-3.87-8.918h-0.48
					l-3.661,8.918h-1.081v0.396h2.557v-0.396h-1.037l1.271-3.068h2.8l1.329,3.068h-1.085v0.396h4.351v-0.396H65.338z M87.721,0.796
					h4.334V0h-0.003h-9.505v0.621v0.175h4.203L79.9,11.871L73.05,0.796h3.531V0.621V0h-12.97v0.621v0.175h3.548l9.819,15.799
					L68.187,30.81h-4.465v0.796h0.001h9.86v-0.621V30.81H69.07l8.37-13.469l8.371,13.469h-3.735v0.796h0.006h13.101v-0.621V30.81
					h-3.568L80.368,12.628L87.721,0.796z M97.427,15.679h-2.49l1.214-2.955L97.427,15.679z M97.829,19.538h4.351v-0.396h-1.095
					l-3.87-8.918h-0.479l-3.661,8.918h-1.081v0.396h2.558v-0.396h-1.038l1.271-3.068h2.8l1.329,3.068h-1.084V19.538z
					 M101.563,40.121c0,0.659-0.253,0.906-0.863,0.906h-0.166v-1.85c0.059-0.006,0.134-0.017,0.209-0.017
					C101.365,39.161,101.563,39.499,101.563,40.121 M102.437,40.089c0-0.825-0.942-1.003-1.587-1.003
					c-0.182,0-0.363,0.005-0.547,0.005c-0.182,0.007-0.363,0.012-0.546,0.012h-0.494v0.075h0.494v3.667h-0.494v0.074h1.765v-0.074
					h-0.493v-1.742h0.22C101.901,41.103,102.437,40.646,102.437,40.089 M107.583,39.103h-1.764v0.075h0.492v3.667h-0.492v0.074
					h1.764v-0.074h-0.493v-1.833h1.549v1.833h-0.492v0.074h1.764v-0.074h-0.493v-3.667h0.493v-0.075h-1.764v0.075h0.492v1.759
					h-1.549v-1.759h0.493V39.103z M115.744,10.963h1.091v-0.395h-2.569v0.395h1.055l-2.429,6.237l-2.382-6.237h1.129v-0.395H107.3
					v0.395h1.079l3.391,8.919h0.51L115.744,10.963z M116.943,39.178h0.466v-0.075h-1.024v0.075h0.467l-0.986,1.87l-1.094-1.87h0.424
					v-0.075h-1.732v0.075h0.424l1.244,2.171v1.496h-0.494v0.074h1.771v-0.074h-0.499v-1.699L116.943,39.178z M123.626,19.538h4.266
					v-0.396h-1.131v-8.179h1.131v-0.395h-4.266v0.395h1.131v8.179h-1.131V19.538z M136.029,19.538h8.072v-2.913h-0.359l-0.021,0.086
					c-0.359,1.545-1.327,2.431-2.654,2.431h-1.903v-4.211h0.711c0.629,0,1.26,0.21,1.611,1.732l0.02,0.087h0.36v-4.044h-0.362
					l-0.018,0.088c-0.222,1.046-0.603,1.742-1.746,1.742h-0.576v-3.573h1.841c1.064,0,1.83,0.64,2.216,1.851l0.024,0.078h0.354
					v-2.324h-7.569v0.395h1.13v8.179h-1.13V19.538z M156.028,12.879c0,0.873-0.113,1.657-1.485,1.657h-0.392v-3.581
					c0.028-0.002,0.057-0.005,0.086-0.008c0.116-0.01,0.227-0.021,0.343-0.021C155.676,10.926,156.028,11.401,156.028,12.879
					 M160,19.029l-0.289-0.26l-0.075,0.075c-0.018,0.018-0.037,0.037-0.056,0.057c-0.144,0.147-0.305,0.315-0.553,0.315
					c-0.425,0-0.453-0.19-0.585-1.925l-0.028-0.367c-0.127-1.655-0.974-1.983-2.282-2.234c1.046-0.202,2.011-0.792,2.011-1.947
					c0-0.768-0.373-1.377-1.078-1.761c-0.724-0.392-1.591-0.451-2.042-0.451c-0.165,0-0.333,0.003-0.503,0.006
					c-0.172,0.003-0.345,0.007-0.521,0.007l-0.051,0.001c-0.329,0.012-0.641,0.023-0.965,0.023h-1.968v0.395h1.131v8.179h-1.131
					v0.396h4.266v-0.396h-1.13v-4.211h0.698c1.419,0,1.474,1.169,1.535,2.522c0.036,0.849,0.098,2.27,2.016,2.27
					c0.908,0,1.16-0.252,1.479-0.572L160,19.029z"/>
			</g>
		</g>
	</g>
</g>
</svg>
