<?xml version="1.0" encoding="utf-8"?>
<!-- Generator: Adobe Illustrator 16.0.0, SVG Export Plug-In . SVG Version: 6.00 Build 0)  -->
<!DOCTYPE svg PUBLIC "-//W3C//DTD SVG 1.1//EN" "http://www.w3.org/Graphics/SVG/1.1/DTD/svg11.dtd">
<svg version="1.1" id="Layer_1" xmlns="http://www.w3.org/2000/svg" xmlns:xlink="http://www.w3.org/1999/xlink" x="0px" y="0px"
	 width="298px" height="80px" viewBox="0 0 298 80" enable-background="new 0 0 298 80" xml:space="preserve">
<g>
	<g>
		<g opacity="0.3">
			<g>
				<path d="M172.695,76.898l1.117-2.723l1.178,2.723H172.695z M171.379,79.711h-0.848v0.14h1.895v-0.14h-0.887l1.106-2.673h2.395
					l1.157,2.673h-0.929v0.14h3.352v-0.14h-0.857l-3.142-7.241h-0.27L171.379,79.711z M160.739,72.889
					c0.149-0.01,0.29-0.029,0.438-0.029c0.997,0,1.267,0.508,1.267,1.675c0,0.729-0.1,1.437-1.297,1.437h-0.408V72.889z
					 M159.882,72.749h-1.507v0.14h0.918v6.822h-0.918v0.14h3.282v-0.14h-0.918V76.11h0.658c1.236,0,1.286,1.047,1.336,2.134
					c0.03,0.699,0.08,1.756,1.547,1.756c0.728,0,0.896-0.199,1.167-0.469l-0.101-0.089c-0.13,0.129-0.289,0.329-0.558,0.329
					c-0.47,0-0.459-0.28-0.589-1.946c-0.109-1.436-0.888-1.575-2.185-1.805v-0.05c0.898-0.069,1.965-0.479,1.965-1.547
					c0-1.325-1.396-1.704-2.443-1.704c-0.27,0-0.549,0.01-0.828,0.01C160.43,72.739,160.16,72.749,159.882,72.749 M144.621,76.32
					c0,2.054,1.776,3.68,3.731,3.68c1.227,0,1.637-0.608,2.274-0.608c0.159,0,0.299,0.069,0.329,0.229h0.179v-2.284h0.649v-0.14
					h-3.083v0.14h1.027v0.379c0,1.207-0.149,2.145-1.366,2.145c-1.497,0-2.115-0.818-2.115-3.242c0-1.675-0.12-3.889,2.115-3.889
					c1.146-0.01,1.825,0.758,2.164,2.054h0.149v-2.034h-0.169c-0.07,0.159-0.129,0.209-0.309,0.209c-0.35,0-1.038-0.369-1.846-0.369
					C146.646,72.589,144.621,74.065,144.621,76.32 M131.742,76.32c0-2.095,0.249-3.591,2.115-3.591c2.005,0,2.104,1.635,2.104,3.501
					c0,2.074-0.14,3.63-2.104,3.63C132.361,79.86,131.742,79.093,131.742,76.32 M130.116,76.32c0,2.054,1.776,3.68,3.741,3.68
					c1.985,0,3.73-1.716,3.73-3.711c0-2.273-1.885-3.7-3.73-3.7C132.141,72.589,130.116,74.065,130.116,76.32 M123.63,72.749h-6.253
					v1.825h0.129c0.389-1.356,0.928-1.686,1.915-1.686h0.359v6.822h-0.917v0.14h3.281v-0.14h-0.918v-6.822h0.36
					c0.987,0,1.526,0.329,1.915,1.686h0.129V72.749z M10.109,29.17H5.478l2.255-5.497L10.109,29.17z M10.857,36.35h8.095v-0.735
					h-2.037L9.716,19.022H8.822l-6.81,16.593H0.001v0.735h4.757v-0.735H2.827l2.366-5.71h5.21l2.471,5.71h-2.017V36.35z
					 M42.587,20.397h2.031v-0.735h-4.78v0.735h1.96L37.281,32L32.85,20.397h2.1v-0.735h-8.072v0.735h2.007l6.309,16.593h0.948
					L42.587,20.397z M56.567,36.35h7.935v-0.735h-2.103V20.397h2.103v-0.735h-7.935v0.735h2.103v15.218h-2.103V36.35z
					 M81.573,74.645c0,1.227-0.468,1.685-1.606,1.685h-0.309v-3.44c0.11-0.01,0.249-0.029,0.389-0.029
					C81.204,72.859,81.573,73.487,81.573,74.645 M80.247,72.72c-0.34,0-0.678,0.01-1.017,0.01c-0.34,0.01-0.679,0.02-1.018,0.02
					h-0.917v0.14h0.917v6.822h-0.917v0.14h3.281v-0.14h-0.918V76.47h0.409c2.135,0,3.132-0.849,3.132-1.886
					C83.199,73.048,81.444,72.72,80.247,72.72 M80.885,36.35h14.906V30.77h-0.673l-0.035,0.164
					c-0.947,4.344-3.915,4.682-4.803,4.682h-3.563V20.397h2.103v-0.735h-7.935v0.735h2.103v15.218h-2.103V36.35z M93.721,79.851
					h3.281v-0.14h-0.917v-6.822h0.917v-0.14h-3.281v0.14h0.917v3.271h-2.882v-3.271h0.918v-0.14h-3.282v0.14h0.918v6.822h-0.918
					v0.14h3.282v-0.14h-0.918v-3.412h2.882v3.412h-0.917V79.851z M107.333,72.729c2.005,0,2.105,1.635,2.105,3.501
					c0,2.074-0.14,3.63-2.105,3.63c-1.496,0-2.115-0.768-2.115-3.54C105.218,74.226,105.468,72.729,107.333,72.729 M107.333,72.589
					c-1.716,0-3.74,1.477-3.74,3.731c0,2.054,1.775,3.68,3.74,3.68c1.985,0,3.731-1.716,3.731-3.711
					C111.064,74.016,109.178,72.589,107.333,72.589 M114.753,29.17h-4.632l2.256-5.497L114.753,29.17z M121.559,35.615l-7.2-16.593
					h-0.892l-6.812,16.593h-2.011v0.735h4.759v-0.735h-1.932l2.365-5.71h5.21l2.472,5.71h-2.017v0.735h8.095v-0.735H121.559z
					 M163.203,1.482h8.062V0h-0.005h-17.683v1.156v0.326h7.817l-12.744,20.604L135.907,1.482h6.571V1.156V0h-24.131v1.156v0.326
					h6.601l18.267,29.393l-16.356,26.444h-8.305v1.481h0.001h18.344v-1.156v-0.325h-8.396l15.572-25.059l15.573,25.059h-6.949v1.481
					h0.011h24.374v-1.156v-0.325h-6.641l-20.92-33.824L163.203,1.482z M181.259,29.17h-4.63l2.254-5.497L181.259,29.17z
					 M182.008,36.351h8.095v-0.736h-2.037l-7.199-16.593h-0.894l-6.811,16.593h-2.012v0.736h4.759v-0.736h-1.932l2.365-5.71h5.21
					l2.472,5.71h-2.017V36.351z M188.955,74.645c0,1.227-0.469,1.685-1.606,1.685h-0.309v-3.44c0.109-0.01,0.25-0.029,0.389-0.029
					C188.587,72.859,188.955,73.487,188.955,74.645 M190.581,74.584c0-1.536-1.755-1.864-2.952-1.864
					c-0.339,0-0.679,0.01-1.018,0.01c-0.34,0.01-0.679,0.02-1.018,0.02h-0.918v0.14h0.918v6.822h-0.918v0.14h3.282v-0.14h-0.918
					V76.47h0.409C189.584,76.47,190.581,75.621,190.581,74.584 M200.155,72.749h-3.281v0.14h0.917v6.822h-0.917v0.14h3.281v-0.14
					h-0.919v-3.412h2.884v3.412h-0.918v0.14h3.281v-0.14h-0.918v-6.822h0.918v-0.14h-3.281v0.14h0.918v3.271h-2.884v-3.271h0.919
					V72.749z M215.338,20.397h2.031v-0.735h-4.781v0.735h1.961L210.032,32l-4.432-11.603h2.101v-0.735h-8.072v0.735h2.007
					l6.308,16.593h0.948L215.338,20.397z M217.568,72.889h0.867v-0.14h-1.904v0.14h0.867l-1.835,3.48l-2.035-3.48h0.788v-0.14
					h-3.222v0.14h0.788l2.314,4.04v2.782h-0.919v0.14h3.292v-0.14h-0.927v-3.162L217.568,72.889z M230.003,36.351h7.935v-0.736
					h-2.102V20.397h2.102v-0.735h-7.935v0.735h2.103v15.218h-2.103V36.351z M253.078,36.351h15.02V30.93h-0.67l-0.037,0.161
					c-0.67,2.875-2.47,4.524-4.94,4.524h-3.54V27.78h1.322c1.171,0,2.345,0.39,2.998,3.221l0.037,0.161h0.67v-7.524h-0.673
					l-0.035,0.165c-0.411,1.946-1.12,3.241-3.248,3.241h-1.071v-6.647h3.426c1.979,0,3.405,1.191,4.122,3.444l0.046,0.145h0.657
					v-4.324h-14.083v0.735h2.102v15.218h-2.102V36.351z M290.611,23.961c0,1.625-0.212,3.083-2.765,3.083h-0.729v-6.662
					c0.053-0.005,0.106-0.01,0.159-0.015c0.218-0.019,0.424-0.038,0.639-0.038C289.956,20.329,290.611,21.212,290.611,23.961
					 M298,35.403l-0.539-0.483l-0.139,0.139c-0.033,0.033-0.068,0.069-0.104,0.106c-0.267,0.275-0.568,0.587-1.029,0.587
					c-0.788,0-0.842-0.354-1.089-3.583l-0.053-0.682c-0.234-3.079-1.812-3.689-4.244-4.156c1.946-0.377,3.742-1.474,3.742-3.622
					c0-1.43-0.695-2.563-2.008-3.276c-1.346-0.731-2.958-0.84-3.8-0.84c-0.307,0-0.619,0.006-0.935,0.012
					c-0.318,0.006-0.641,0.011-0.97,0.011l-0.093,0.004c-0.613,0.021-1.191,0.042-1.797,0.042h-3.658v0.735h2.102v15.218h-2.102
					v0.736h7.935v-0.736h-2.103V27.78h1.3c2.641,0,2.74,2.174,2.855,4.692c0.067,1.579,0.182,4.222,3.751,4.222
					c1.689,0,2.158-0.471,2.751-1.066L298,35.403z"/>
			</g>
		</g>
	</g>
</g>
</svg>
